<?xml version="1.0" encoding="UTF-8"?>
<svg version="1.1" xmlns="http://www.w3.org/2000/svg" width="512" height="512">
<path d="M0 0 C33.21637242 9.1118083 65.08849526 6.22320237 97.94921875 -2.56689453 C110.96331182 -6.01330805 123.83621454 -7.82084067 137.31542969 -7.74853516 C138.98690063 -7.74116333 138.98690063 -7.74116333 140.69213867 -7.73364258 C175.22832906 -7.2518112 208.35426098 5.14897025 234.62792969 27.56396484 C235.49160156 28.28712891 236.35527344 29.01029297 237.24511719 29.75537109 C242.17937037 34.00015792 246.51871699 38.52240976 250.62792969 43.56396484 C251.36527344 44.44052734 252.10261719 45.31708984 252.86230469 46.22021484 C270.26459856 67.72368626 294.5265894 107.95751986 291.62792969 136.56396484 C288.70376671 145.88473433 278.28506454 151.3548808 270.44042969 156.25146484 C269.00183594 157.15602417 269.00183594 157.15602417 267.53417969 158.07885742 C216.52516218 189.91353176 161.1860747 210.74942559 101.62792969 219.56396484 C100.58443359 219.72912598 99.5409375 219.89428711 98.46582031 220.06445312 C59.55151729 226.04508425 17.44739665 224.88632225 -21.37207031 218.56396484 C-22.03456787 218.45741577 -22.69706543 218.3508667 -23.37963867 218.24108887 C-83.29173304 208.5456955 -141.22646347 185.66143575 -191.12207031 151.00146484 C-191.7950415 150.53732178 -192.4680127 150.07317871 -193.16137695 149.5949707 C-197.75939691 146.30402632 -201.79895025 142.71020498 -204.37207031 137.56396484 C-205.28781769 129.04432989 -203.36082818 121.85672466 -200.55957031 113.87646484 C-200.15722168 112.70599609 -199.75487305 111.53552734 -199.34033203 110.32958984 C-183.3453365 64.96863884 -157.61554686 27.0935755 -113.4921875 5.56445312 C-77.41992805 -11.45813085 -37.67201812 -10.45717619 0 0 Z " fill="#BDC9CD" transform="translate(212.3720703125,289.43603515625)"/>
<path d="M0 0 C1.00039307 0.27287842 1.00039307 0.27287842 2.02099609 0.55126953 C22.66562637 6.30789582 40.19317656 17.81032399 56 32 C56.80308594 32.71800781 57.60617187 33.43601563 58.43359375 34.17578125 C82.2367746 56.70606473 95.97618797 90.49571724 97.22265625 122.91015625 C98.10245409 159.48167484 85.69803298 193.59489055 60.7421875 220.578125 C39.07673609 243.30536766 8.4158075 259.64157374 -23.37060547 261.16113281 C-27.20551888 261.20718819 -31.03982191 261.24666305 -34.875 261.25 C-35.56941193 261.25067474 -36.26382385 261.25134949 -36.97927856 261.25204468 C-72.98708017 261.1964442 -105.458364 247.38107579 -131.1875 222.25 C-156.12248353 197.01444616 -169.31420374 162.43269992 -169.1784668 127.15209961 C-168.76179471 93.76751919 -156.64670871 62.55648035 -134 38 C-133.13632813 37.05382813 -132.27265625 36.10765625 -131.3828125 35.1328125 C-98.31906269 0.49927041 -45.98786746 -13.09175081 0 0 Z " fill="#BCC9CD" transform="translate(292,4)"/>
</svg>
