<?xml version="1.0" encoding="UTF-8"?>
<svg version="1.1" xmlns="http://www.w3.org/2000/svg" width="48" height="48">
<path d="M0 0 C1.11246094 -0.00257813 2.22492187 -0.00515625 3.37109375 -0.0078125 C4.53769531 -0.00007812 5.70429688 0.00765625 6.90625 0.015625 C8.07285156 0.00789062 9.23945313 0.00015625 10.44140625 -0.0078125 C11.55386719 -0.00523437 12.66632812 -0.00265625 13.8125 0 C14.83666016 0.00225586 15.86082031 0.00451172 16.91601562 0.00683594 C19.40625 0.265625 19.40625 0.265625 21.40625 2.265625 C21.53125 4.890625 21.53125 4.890625 21.40625 7.265625 C16.53125 6.390625 16.53125 6.390625 15.40625 5.265625 C12.56289952 5.16575525 9.74927837 5.12684619 6.90625 5.140625 C6.10832031 5.13675781 5.31039063 5.13289062 4.48828125 5.12890625 C0.6378568 4.7566289 0.6378568 4.7566289 -2.59375 6.265625 C-2.69321453 8.03421693 -2.72455217 9.80673951 -2.7265625 11.578125 C-2.72785156 12.65320313 -2.72914062 13.72828125 -2.73046875 14.8359375 C-2.72660156 15.96773437 -2.72273437 17.09953125 -2.71875 18.265625 C-2.72261719 19.39742187 -2.72648438 20.52921875 -2.73046875 21.6953125 C-2.72917969 22.77039063 -2.72789063 23.84546875 -2.7265625 24.953125 C-2.72543457 25.94699219 -2.72430664 26.94085938 -2.72314453 27.96484375 C-2.8520933 30.22937726 -2.8520933 30.22937726 -1.59375 31.265625 C1.23041382 31.39225591 4.01919793 31.45083048 6.84375 31.453125 C8.02807617 31.47149414 8.02807617 31.47149414 9.23632812 31.49023438 C11.29432435 31.49549779 13.35187009 31.38768785 15.40625 31.265625 C16.06625 30.605625 16.72625 29.945625 17.40625 29.265625 C18.72625 29.265625 20.04625 29.265625 21.40625 29.265625 C21.53125 31.640625 21.53125 31.640625 21.40625 34.265625 C18.75925384 36.91262116 17.50230591 36.52312267 13.8125 36.53125 C12.70003906 36.53382812 11.58757813 36.53640625 10.44140625 36.5390625 C9.27480469 36.53132813 8.10820312 36.52359375 6.90625 36.515625 C5.73964844 36.52335937 4.57304687 36.53109375 3.37109375 36.5390625 C2.25863281 36.53648438 1.14617188 36.53390625 0 36.53125 C-1.02416016 36.52899414 -2.04832031 36.52673828 -3.10351562 36.52441406 C-5.59375 36.265625 -5.59375 36.265625 -7.59375 34.265625 C-7.85253906 31.1328125 -7.85253906 31.1328125 -7.859375 27.140625 C-7.86128845 26.4379248 -7.8632019 25.73522461 -7.86517334 25.01123047 C-7.86653475 23.52506146 -7.86284132 22.03888055 -7.85449219 20.55273438 C-7.84379154 18.27446854 -7.85438839 15.99699123 -7.8671875 13.71875 C-7.8658659 12.27603992 -7.86330349 10.83333034 -7.859375 9.390625 C-7.85711914 8.07320312 -7.85486328 6.75578125 -7.85253906 5.3984375 C-7.39519803 -0.13797773 -4.90036386 0.01079375 0 0 Z " fill="#000000" transform="translate(13.59375,5.734375)"/>
<path d="M0 0 C3.54970117 0.19720562 5.03939242 1.03082885 7.875 3.25 C10 6 10 6 10.125 8.5 C8.63086898 11.82029115 6.81504967 13.7086805 4 16 C2.68 16 1.36 16 0 16 C0.33 14.35 0.66 12.7 1 11 C-4.94 10.67 -10.88 10.34 -17 10 C-17 8.68 -17 7.36 -17 6 C-11.06 5.67 -5.12 5.34 1 5 C0.34 3.68 -0.32 2.36 -1 1 C-0.67 0.67 -0.34 0.34 0 0 Z " fill="#000000" transform="translate(32,16)"/>
</svg>
