<?xml version="1.0" encoding="UTF-8"?>
<svg version="1.1" xmlns="http://www.w3.org/2000/svg" width="48" height="48">
<path d="M0 0 C10.56 0 21.12 0 32 0 C29.85792454 4.28415092 27.49353383 6.94250421 24.1875 10.3125 C23.66607422 10.87517578 23.14464844 11.43785156 22.60742188 12.01757812 C18.78346057 15.91792318 18.78346057 15.91792318 15.5390625 16.2578125 C11.73157643 14.37164248 9.10810043 11.6068271 6.1875 8.5625 C5.59001953 7.96373047 4.99253906 7.36496094 4.37695312 6.74804688 C0 2.28105357 0 2.28105357 0 0 Z " fill="#000000" transform="translate(8,10)"/>
<path d="M0 0 C1.2375 0.309375 2.475 0.61875 3.75 0.9375 C4.3790625 0.69257813 5.008125 0.44765625 5.65625 0.1953125 C6.69265625 0.06769531 6.69265625 0.06769531 7.75 -0.0625 C10.328125 1.95703125 10.328125 1.95703125 13 4.75 C13.89203125 5.66394531 14.7840625 6.57789063 15.703125 7.51953125 C17.75 9.9375 17.75 9.9375 17.75 11.9375 C7.19 11.9375 -3.37 11.9375 -14.25 11.9375 C-11.45263936 6.34277872 -7.13519815 -1.09566713 0 0 Z " fill="#000000" transform="translate(22.25,26.0625)"/>
<path d="M0 0 C4.56388839 1.82555536 6.10372076 2.75306249 9.3125 6.125 C10.00988281 6.84945313 10.70726562 7.57390625 11.42578125 8.3203125 C11.94527344 8.87460937 12.46476562 9.42890625 13 10 C11.53424802 13.37198902 9.64818479 15.64987004 7.0625 18.25 C6.37285156 18.95640625 5.68320313 19.6628125 4.97265625 20.390625 C3 22 3 22 0 22 C0 14.74 0 7.48 0 0 Z " fill="#000000" transform="translate(5,13)"/>
<path d="M0 0 C0 7.26 0 14.52 0 22 C-4.48415202 20.878962 -5.6238804 19.70153664 -8.75 16.4375 C-9.94882812 15.19806641 -9.94882812 15.19806641 -11.171875 13.93359375 C-11.77515625 13.29550781 -12.3784375 12.65742188 -13 12 C-11.50198648 8.38522825 -9.42462583 6.31379537 -6.5 3.75 C-5.7059375 3.04359375 -4.911875 2.3371875 -4.09375 1.609375 C-2 0 -2 0 0 0 Z " fill="#000000" transform="translate(43,13)"/>
</svg>
